<?xml version="1.0" standalone="no"?>
<!DOCTYPE svg PUBLIC "-//W3C//DTD SVG 20010904//EN"
 "http://www.w3.org/TR/2001/REC-SVG-20010904/DTD/svg10.dtd">
<svg version="1.0" xmlns="http://www.w3.org/2000/svg"
 width="450.000000pt" height="450.000000pt" viewBox="0 0 450.000000 450.000000"
 preserveAspectRatio="xMidYMid meet">
 <style>
   path {
     fill: #153a51;
   }

   @media (prefers-color-scheme: dark) {
     path {
       fill: #FFFFFF;
     }
   }
 </style>
<metadata>
Created by potrace 1.16, written by Peter Selinger 2001-2019
</metadata>
<g transform="translate(0.000000,450.000000) scale(0.100000,-0.100000)"
fill="#000000" stroke="none">
<path d="M2095 4469 c-22 -4 -65 -11 -95 -16 -30 -5 -70 -17 -87 -26 -18 -10
-35 -17 -38 -17 -34 2 -143 -50 -181 -87 -16 -15 -46 -36 -66 -45 -21 -10 -38
-22 -38 -26 0 -5 -19 -21 -42 -36 -53 -33 -133 -139 -143 -186 -4 -19 -13 -45
-21 -57 -8 -12 -14 -31 -14 -41 0 -10 -3 -22 -7 -26 -5 -4 -9 -23 -9 -43 -1
-19 -7 -76 -13 -127 -37 -320 -39 -407 -7 -595 19 -120 18 -116 73 -174 35
-37 42 -52 48 -100 6 -45 4 -61 -8 -75 -8 -9 -18 -34 -22 -54 -7 -37 -7 -37
21 -29 l29 7 7 160 c7 165 20 249 45 297 9 19 14 53 12 100 -7 216 7 353 47
432 15 31 92 85 120 85 8 0 24 5 34 10 10 6 32 11 47 13 16 2 35 7 43 13 8 5
42 10 75 10 33 1 92 5 130 9 50 5 92 2 150 -9 75 -16 98 -19 182 -30 18 -3 36
0 39 6 4 7 9 6 15 -3 7 -12 46 -17 167 -23 17 0 32 -4 32 -8 0 -5 19 -8 43 -8
23 -1 53 -7 67 -15 14 -8 37 -14 53 -15 15 0 27 -4 27 -10 0 -5 6 -10 13 -10
6 0 28 -21 47 -47 29 -39 37 -61 51 -147 9 -55 17 -147 18 -204 1 -57 5 -109
8 -117 9 -26 -8 -16 -63 34 -47 43 -60 50 -112 56 -35 4 -76 2 -98 -4 -22 -6
-51 -11 -66 -11 -14 0 -28 -5 -30 -12 -4 -10 -22 -13 -104 -17 -11 -1 -36 -15
-55 -32 -19 -17 -44 -38 -56 -46 -30 -20 -29 -28 6 -58 31 -28 46 -70 56 -155
9 -78 15 -96 26 -79 6 11 9 10 15 -4 3 -9 17 -17 29 -17 13 0 26 -4 29 -8 3
-5 18 -9 34 -10 16 0 45 -7 65 -16 65 -27 115 -16 174 39 13 11 23 28 23 38 0
11 8 17 25 18 14 1 31 2 38 3 8 1 12 23 12 74 0 60 2 70 13 55 6 -9 12 -21 12
-26 0 -4 5 -5 10 -2 6 3 10 -1 10 -9 0 -9 6 -13 14 -10 10 4 13 17 10 42 -3
35 -3 35 10 -8 7 -25 21 -79 30 -120 9 -41 26 -86 36 -100 l20 -25 0 82 c0 48
-4 83 -10 85 -7 2 -4 50 10 143 24 155 39 401 27 443 -4 15 -9 104 -11 197 -5
193 -11 227 -61 315 -19 34 -35 65 -35 69 0 11 -65 71 -77 71 -6 0 -21 11 -32
25 -34 44 -140 123 -204 153 -84 39 -201 68 -327 81 -163 17 -202 19 -245 10z"/>
<path d="M1760 3267 c-14 -7 -51 -32 -82 -57 -51 -41 -58 -51 -72 -109 -9 -35
-14 -66 -11 -69 2 -3 15 6 27 20 27 30 44 39 123 67 66 23 110 26 152 10 l28
-11 -25 -14 c-14 -7 -49 -21 -78 -30 -61 -18 -112 -57 -112 -86 0 -16 5 -19
21 -15 16 4 18 3 8 -9 -6 -7 -15 -11 -20 -8 -5 3 -9 -4 -9 -15 0 -12 6 -21 14
-21 8 0 27 -5 43 -12 15 -6 39 -13 53 -14 13 -2 32 -13 41 -25 14 -19 23 -21
92 -18 68 4 79 7 107 34 18 17 40 49 51 73 13 28 26 42 39 42 19 0 36 32 25
49 -3 6 4 15 15 21 11 6 20 16 20 23 0 7 7 25 15 41 11 20 12 33 5 40 -5 5
-10 18 -10 27 0 12 -6 16 -19 12 -10 -3 -32 2 -48 11 -17 8 -41 17 -54 20 -13
2 -58 11 -99 20 -86 18 -204 20 -240 3z"/>
<path d="M2541 2716 c-12 -14 -5 -46 9 -46 10 0 35 -38 44 -66 10 -31 -19 -38
-58 -15 -34 22 -49 22 -84 2 -38 -20 -122 -42 -134 -35 -7 5 -8 3 -3 -6 6 -10
4 -12 -8 -7 -46 17 -87 18 -121 2 -20 -10 -36 -20 -36 -24 0 -18 65 -71 89
-73 52 -3 56 -4 68 -11 8 -5 8 -15 0 -36 -9 -23 -7 -34 6 -55 24 -35 55 -41
101 -17 36 19 40 19 62 3 13 -9 24 -19 24 -22 0 -11 -97 -35 -150 -37 -30 -2
-115 -6 -188 -9 -127 -6 -134 -5 -156 15 -20 18 -30 21 -75 15 -47 -6 -51 -5
-48 14 2 11 19 38 39 60 51 56 63 81 44 88 -19 7 -32 -1 -94 -54 -35 -30 -52
-53 -56 -76 -8 -42 1 -66 24 -66 10 0 24 -9 31 -21 12 -17 18 -19 41 -10 18 7
45 7 80 0 70 -13 299 -33 368 -33 96 0 188 9 183 17 -11 19 81 -4 97 -24 3 -3
12 -9 20 -12 10 -5 9 -6 -5 -4 -22 2 -45 -9 -45 -22 0 -4 13 -6 29 -3 16 2 31
-1 35 -6 3 -6 -9 -12 -29 -14 -19 -2 -35 -1 -35 3 0 4 -16 14 -35 23 -19 9
-35 21 -35 26 0 17 -17 11 -49 -16 -17 -14 -35 -23 -40 -20 -5 4 -22 1 -38 -5
-32 -14 -60 -21 -87 -23 -11 0 -32 -13 -48 -28 -25 -24 -28 -32 -22 -69 9 -55
29 -61 194 -64 74 -2 137 -4 140 -5 17 -8 48 5 69 28 15 18 25 23 28 15 3 -7
8 -13 13 -13 5 0 10 6 13 13 2 6 2 1 0 -11 -2 -14 0 -21 6 -18 20 13 22 -16 2
-35 -12 -11 -21 -29 -21 -41 0 -16 -5 -19 -24 -16 -15 3 -27 0 -30 -8 -6 -16
-62 -19 -71 -4 -4 6 -12 7 -18 3 -18 -11 -36 -12 -43 -2 -3 5 -10 9 -15 9 -6
0 -7 -5 -3 -12 5 -7 3 -8 -6 -3 -8 5 -18 2 -26 -9 -10 -14 -16 -16 -34 -6 -26
14 -50 7 -50 -15 0 -8 -7 -15 -15 -15 -8 0 -15 -7 -15 -15 0 -8 -12 -17 -27
-20 -16 -4 -37 -11 -47 -17 -25 -13 -121 -13 -172 1 -23 6 -49 20 -60 32 -18
20 -89 55 -97 47 -2 -1 -15 10 -29 25 -15 16 -38 29 -52 31 -15 1 -33 11 -41
22 -8 10 -15 15 -15 10 0 -5 -7 -2 -17 5 -15 13 -16 11 -9 -15 6 -26 41 -80
74 -114 6 -7 12 -24 12 -37 0 -13 5 -25 12 -27 6 -2 12 -15 13 -28 1 -17 10
-26 30 -32 34 -9 47 -26 39 -52 -5 -15 -3 -18 10 -13 13 5 15 3 7 -12 -10 -18
2 -41 22 -41 12 0 37 -27 37 -40 0 -6 5 -8 10 -5 6 4 10 -7 9 -27 -1 -20 -3
-25 -6 -14 -3 11 -8 15 -12 8 -10 -16 -78 17 -165 82 -82 61 -126 112 -141
164 -6 20 -16 37 -23 40 -13 4 -62 -43 -134 -129 -67 -80 -173 -167 -333 -273
-77 -51 -174 -115 -215 -143 -41 -28 -124 -71 -185 -96 -60 -25 -153 -64 -205
-87 -86 -38 -125 -54 -285 -123 -72 -31 -160 -96 -184 -138 -27 -48 -57 -182
-66 -298 -4 -52 -18 -151 -31 -220 -13 -69 -27 -156 -31 -193 l-6 -68 2232 0
2231 0 0 169 c0 92 -4 181 -10 197 -5 16 -19 83 -30 149 -34 198 -85 385 -132
480 -41 84 -93 145 -124 145 -8 0 -40 13 -72 29 -92 46 -309 129 -408 156 -82
23 -239 83 -384 148 -30 13 -106 43 -168 67 -99 38 -117 49 -160 95 -72 79
-92 105 -92 120 0 7 -7 30 -16 51 -13 31 -18 35 -25 22 -5 -9 -10 -35 -11 -57
-1 -36 -4 -40 -24 -39 -15 2 -22 8 -21 20 1 10 5 18 10 18 5 0 4 6 -2 14 -15
18 -9 107 9 151 41 100 60 159 60 185 0 20 5 30 15 30 12 0 13 4 5 19 -14 26
-14 25 19 60 19 20 28 38 24 48 -6 14 -7 14 -14 -3 -4 -10 -8 -13 -8 -6 -1 7
5 23 13 35 14 23 14 91 1 140 -10 38 -55 59 -111 54 -24 -3 -47 -1 -50 4 -3 5
-18 9 -33 9 -40 0 -75 31 -120 108 -35 59 -75 112 -85 112 -2 0 -9 -6 -15 -14z"/>
</g>
</svg>
